<svg width="70" height="74" viewBox="0 0 70 74" fill="none" xmlns="http://www.w3.org/2000/svg">
<path d="M21.2719 21.2566H18.7693V23.7094H21.2719V21.2566Z" fill="#72758E"/>
<path d="M33.7847 21.2566H31.2822V23.7094H33.7847V21.2566Z" fill="#72758E"/>
<path d="M31.2821 28.6147H28.7796C28.7796 29.2653 28.5159 29.8891 28.0466 30.3491C27.5773 30.8091 26.9407 31.0675 26.277 31.0675C25.6133 31.0675 24.9768 30.8091 24.5075 30.3491C24.0381 29.8891 23.7745 29.2653 23.7745 28.6147H21.2719C21.2719 29.9158 21.7992 31.1635 22.7379 32.0835C23.6765 33.0035 24.9496 33.5203 26.277 33.5203C27.6045 33.5203 28.8775 33.0035 29.8162 32.0835C30.7548 31.1635 31.2821 29.9158 31.2821 28.6147Z" fill="#72758E"/>
<path d="M66.6933 12.6719C66.5378 12.5203 66.3443 12.4114 66.1323 12.3562C65.9204 12.301 65.6973 12.3014 65.4856 12.3573C65.2738 12.4132 65.0807 12.5226 64.9257 12.6747C64.7707 12.8268 64.6592 13.0161 64.6024 13.2237L62.8856 19.5041L58.7727 20.3282L55.6332 17.5995L57.3462 11.3228C57.4029 11.1152 57.4028 10.8967 57.3461 10.6891C57.2895 10.4815 57.1781 10.2921 57.0233 10.1399C56.8684 9.98779 56.6755 9.8782 56.4638 9.82214C56.2521 9.76608 56.0291 9.76552 55.8171 9.82053C53.9686 10.304 52.2766 11.2416 50.901 12.5449C49.5254 13.8481 48.5117 15.4737 47.956 17.268C47.4003 19.0622 47.3208 20.9658 47.7251 22.7985C48.1294 24.6313 49.0041 26.3327 50.2665 27.7417L45.1337 46.5201C44.4151 46.1523 43.6653 45.8461 42.8927 45.6052L32.5333 42.4301V38.1733C34.793 37.0443 36.6902 35.325 38.0152 33.2052C39.3401 31.0855 40.0412 28.648 40.041 26.1621V24.9357C40.8778 24.9384 41.6913 24.6661 42.3515 24.1623C43.0118 23.6586 43.4807 22.9524 43.6833 22.1567C43.8859 21.361 43.8105 20.5217 43.4692 19.773C43.1278 19.0242 42.5402 18.4092 41.8003 18.0263C41.8727 17.9244 41.9387 17.8183 41.998 17.7086L42.1231 17.456C42.3614 16.9927 42.4964 16.485 42.5191 15.9666C42.5418 15.4482 42.4517 14.931 42.2547 14.4494C42.0578 13.9678 41.7585 13.5328 41.3769 13.1732C40.9952 12.8137 40.5398 12.5378 40.041 12.364V6.09845C40.0371 5.24892 39.7348 4.42662 39.1849 3.76994C38.635 3.11326 37.8711 2.66227 37.0217 2.49288L28.4779 0.809054C27.0202 0.534352 25.5224 0.534352 24.0647 0.809054L15.531 2.49288C14.6818 2.66252 13.9182 3.11361 13.3685 3.77027C12.8188 4.42693 12.5167 5.24909 12.5129 6.09845V12.364C12.0139 12.5375 11.5583 12.813 11.1763 13.1723C10.7944 13.5316 10.4948 13.9664 10.2975 14.4479C10.1002 14.9295 10.0097 15.4466 10.032 15.965C10.0544 16.4834 10.189 16.9913 10.427 17.4548L10.5521 17.7C10.6108 17.8109 10.6756 17.9186 10.7461 18.0226C10.0035 18.4048 9.41359 19.0205 9.07094 19.7708C8.72828 20.5211 8.65279 21.3625 8.85658 22.1599C9.06038 22.9573 9.53163 23.6645 10.1947 24.1679C10.8578 24.6712 11.6742 24.9417 12.5129 24.9357V26.1621C12.5156 28.6461 13.2181 31.0811 14.5428 33.1987C15.8675 35.3164 17.7631 37.0344 20.0205 38.1635V42.4301L9.66371 45.6052C6.85779 46.4519 4.40383 48.1601 2.66386 50.4778C0.923881 52.7954 -0.00996728 55.5999 8.02356e-05 58.4773V72.7647C8.02356e-05 73.09 0.131911 73.4019 0.366572 73.6319C0.601232 73.8619 0.9195 73.9911 1.25136 73.9911H51.3025C51.6344 73.9911 51.9527 73.8619 52.1873 73.6319C52.422 73.4019 52.5538 73.09 52.5538 72.7647V70.3119H50.0513V71.5383H43.7949V67.8592H41.2923V71.5383H11.2616V58.0481H8.75903V71.5383H2.50264V58.4773C2.49412 56.1234 3.25798 53.8291 4.68146 51.9331C6.10495 50.0371 8.11264 48.6398 10.4082 47.9476L13.7642 46.9187V54.3689C13.7661 55.9946 14.4259 57.5532 15.5988 58.7027C16.7717 59.8523 18.3619 60.4989 20.0205 60.5009H32.5333C33.3961 60.4991 34.2491 60.3214 35.038 59.9789C35.8269 59.6364 36.5344 59.1368 37.1155 58.5117C37.15 61.3919 38.335 64.1442 40.4164 66.1778C40.5719 66.3294 40.7654 66.4382 40.9773 66.4934C41.1893 66.5487 41.4123 66.5483 41.6241 66.4924C41.8359 66.4365 42.0289 66.327 42.184 66.175C42.339 66.0229 42.4505 65.8335 42.5073 65.6259L44.224 59.3456L48.3358 58.5203L51.4765 61.249L49.7597 67.5293C49.71 67.711 49.7036 67.9015 49.741 68.086C49.7785 68.2706 49.8587 68.4442 49.9756 68.5935C50.0924 68.7427 50.2427 68.8636 50.4149 68.9468C50.5871 69.0301 50.7765 69.0733 50.9684 69.0733C51.0761 69.0731 51.1833 69.0595 51.2875 69.0328C53.1364 68.55 54.829 67.6126 56.2051 66.3095C57.5811 65.0063 58.595 63.3805 59.1508 61.586C59.7066 59.7915 59.7859 57.8877 59.3812 56.0547C58.9765 54.2218 58.1012 52.5204 56.8382 51.1117L62.3588 30.9168C64.1719 30.3157 65.7985 29.2709 67.0844 27.8815C68.3703 26.492 69.273 24.8037 69.7071 22.9767C70.1411 21.1496 70.0921 19.2442 69.5647 17.4409C69.0373 15.6376 68.049 13.9961 66.6933 12.6719ZM43.4558 48.459C41.5297 49.3844 39.9116 50.827 38.7897 52.6189V46.9187L42.1444 47.9476C42.592 48.0909 43.03 48.2617 43.4558 48.459ZM32.6072 45.0251L31.6412 49.9638L28.2953 48.0016L31.6312 44.732L32.6072 45.0251ZM14.1395 17.2684C13.8727 17.3158 13.5974 17.277 13.355 17.1578C13.1126 17.0385 12.9163 16.8454 12.7957 16.6073L12.6705 16.3621C12.5823 16.1892 12.5369 15.9983 12.5383 15.805C12.5396 15.6116 12.5876 15.4214 12.6782 15.2497C12.7688 15.078 12.8996 14.9297 13.0599 14.817C13.2201 14.7042 13.4053 14.6302 13.6002 14.601L24.5715 12.9478C25.7059 12.7761 26.8605 12.7761 27.995 12.9478L38.9662 14.601C39.1609 14.6302 39.3459 14.7041 39.506 14.8166C39.6661 14.9291 39.7968 15.0771 39.8876 15.2485C39.9783 15.4199 40.0265 15.6098 40.0281 15.8029C40.0298 15.996 39.9849 16.1867 39.8971 16.3596L39.772 16.6122C39.651 16.8496 39.4547 17.0421 39.2127 17.1608C38.9706 17.2796 38.6957 17.3182 38.4294 17.2708L28.3015 15.4644C26.9703 15.2264 25.6061 15.2264 24.2749 15.4644L14.1395 17.2684ZM40.041 22.4829V20.0302C40.3729 20.0302 40.6911 20.1594 40.9258 20.3894C41.1605 20.6194 41.2923 20.9313 41.2923 21.2566C41.2923 21.5818 41.1605 21.8938 40.9258 22.1237C40.6911 22.3537 40.3729 22.4829 40.041 22.4829ZM37.5385 6.09845V11.9029L34.3164 11.4124L35.6803 4.7249L36.5262 4.89169C36.811 4.94766 37.0673 5.09835 37.2517 5.31825C37.4362 5.53816 37.5375 5.81377 37.5385 6.09845ZM24.5477 3.2189C25.6863 3.00367 26.8563 3.00367 27.995 3.2189L33.2278 4.24906L31.8401 11.0469L28.3703 10.5232C26.983 10.3123 25.5709 10.3123 24.1836 10.5232L20.7138 11.0469L19.3261 4.24661L24.5477 3.2189ZM16.0265 4.89659L16.8736 4.72981L18.2375 11.4173L15.0154 11.9078V6.09845C15.0175 5.81479 15.1191 5.54046 15.3032 5.32159C15.4874 5.10272 15.7427 4.95264 16.0265 4.89659ZM11.2616 21.2566C11.2616 20.9313 11.3934 20.6194 11.6281 20.3894C11.8627 20.1594 12.181 20.0302 12.5129 20.0302V22.4829C12.181 22.4829 11.8627 22.3537 11.6281 22.1237C11.3934 21.8938 11.2616 21.5818 11.2616 21.2566ZM15.0154 26.1621V19.6034L24.7103 17.8766C25.7446 17.6921 26.8043 17.6921 27.8385 17.8766L37.5385 19.6034V26.1621C37.5385 29.0894 36.352 31.8968 34.24 33.9668C32.1281 36.0367 29.2637 37.1996 26.2769 37.1996C23.2902 37.1996 20.4258 36.0367 18.3139 33.9668C16.2019 31.8968 15.0154 29.0894 15.0154 26.1621ZM26.2769 39.6523C27.5465 39.6501 28.8097 39.4764 30.0308 39.136V42.8238L26.2769 46.5029L22.5231 42.8238V39.1299C23.7437 39.4735 25.007 39.6493 26.2769 39.6523ZM20.9227 44.7234L24.2586 47.9917L20.9127 49.954L19.9467 45.0153L20.9227 44.7234ZM32.5333 58.0481H20.0205C19.025 58.0481 18.0702 57.6605 17.3662 56.9705C16.6622 56.2805 16.2667 55.3447 16.2667 54.3689V46.1522L17.5418 45.761L18.793 52.148C18.8307 52.3424 18.9159 52.525 19.0412 52.6802C19.1665 52.8353 19.3283 52.9585 19.5127 53.0391C19.6971 53.1197 19.8986 53.1554 20.1002 53.1431C20.3017 53.1308 20.4972 53.0708 20.67 52.9684L26.2769 49.667L31.8889 52.9672C32.0617 53.0696 32.2572 53.1295 32.4587 53.1419C32.6603 53.1542 32.8618 53.1185 33.0462 53.0379C33.2306 52.9573 33.3924 52.8341 33.5177 52.6789C33.643 52.5238 33.7282 52.3412 33.7659 52.1467L35.0171 45.7597L36.2872 46.1522V54.3689C36.2872 55.3447 35.8917 56.2805 35.1877 56.9705C34.4837 57.6605 33.5289 58.0481 32.5333 58.0481ZM67.1938 22.6951C66.7926 24.1482 66.0097 25.4728 64.9231 26.5367C63.8365 27.6006 62.4842 28.3667 61.0012 28.7584C60.7893 28.8143 60.5961 28.9238 60.4411 29.076C60.286 29.2282 60.1745 29.4177 60.1178 29.6254L54.2368 51.1325C54.18 51.3402 54.18 51.5589 54.2366 51.7666C54.2933 51.9743 54.4047 52.1638 54.5596 52.316C55.5047 53.2404 56.2213 54.3645 56.6545 55.6024C57.0877 56.8402 57.226 58.1588 57.0589 59.4571C56.8917 60.7554 56.4235 61.999 55.6901 63.0925C54.9567 64.186 53.9776 65.1005 52.8278 65.7657L54.0891 61.1521C54.1496 60.9324 54.1466 60.7005 54.0803 60.4824C54.014 60.2643 53.8871 60.0686 53.7137 59.9171L49.5257 56.2784C49.297 56.0795 49.0019 55.9696 48.6961 55.9694C48.6121 55.9698 48.5283 55.978 48.4459 55.9939L42.964 57.0976C42.7366 57.1433 42.5266 57.2501 42.3576 57.406C42.1885 57.562 42.0671 57.7609 42.0068 57.9806L40.7467 62.5943C40.0903 61.4549 39.7088 60.1833 39.6314 58.8769C39.554 57.5706 39.7828 56.2643 40.3003 55.058C40.8178 53.8518 41.6101 52.7777 42.6167 51.918C43.6233 51.0584 44.8173 50.436 46.1072 50.0987C46.3191 50.0428 46.5123 49.9332 46.6673 49.781C46.8224 49.6288 46.9339 49.4394 46.9906 49.2316L52.8716 27.7233C52.9284 27.5156 52.9284 27.2969 52.8718 27.0892C52.8151 26.8815 52.7037 26.692 52.5488 26.5398C51.604 25.6152 50.8877 24.491 50.4547 23.2531C50.0218 22.0153 49.8836 20.6968 50.0509 19.3985C50.2182 18.1003 50.6864 16.8568 51.4198 15.7633C52.1532 14.6698 53.1322 13.7554 54.2818 13.0901L53.0118 17.7C52.9515 17.9196 52.9547 18.1512 53.021 18.3691C53.0873 18.5869 53.2141 18.7825 53.3872 18.9338L57.5739 22.5725C57.7191 22.6987 57.8922 22.7902 58.0796 22.8395C58.2671 22.8889 58.4636 22.8949 58.6538 22.857L64.1369 21.7533C64.3645 21.7075 64.5746 21.6005 64.7436 21.4444C64.9127 21.2882 65.034 21.089 65.0941 20.869L66.3554 16.2566C67.4848 18.2122 67.7859 20.5242 67.1938 22.6951Z" fill="#72758E"/>
</svg>
